# ProBuilder 4.2.3
# https://unity3d.com/unity/features/worldbuilding/probuilder
# 5.09.2020 14:32:39

mtllib ./Ground.mtl
o Ground

g Ground
v 1.071068 -1 4
v -4 -1 4
v 1.071069 -0.3661164 4
v -4 -2.261311E-08 4
v 1.071069 -2.261311E-08 4
v 4 -1 4
v 4 -2.261311E-08 4
v -4 -1 -6
v -4 -2.261311E-08 -6
v -3.071069 -1 -6
v -3.071069 -0.1161165 -6
v -3.071069 -2.261311E-08 -6
v 3.071068 -1 -6
v 4 -1 -6
v 3.071068 -0.8838836 -6
v 4 -2.261311E-08 -6
v 3.071068 -2.261311E-08 -6
v -1.071068 -1 -6
v -1.071068 -0.3661166 -6
v -1.071068 -2.261311E-08 -6
v 4 -1 1.656855
v 4 -0.7656856 1.656855
v 4 -2.261311E-08 1.656855
v 4 -1 -1.656855
v 4 -0.4343145 -1.656855
v 4 -2.261311E-08 -1.656855
v -0.6588627 -2.261311E-08 -0.1764217
v -0.6008841 -2.261311E-08 -0.2488947
v -0.7071069 -2.261311E-08 -0.2928934
v 4.023314E-07 -2.261311E-08 -4.0772E-08
v 0.7071066 -2.261311E-08 -0.292893
v 2.073686 -2.261311E-08 -3.592108
v 0.9999999 -2.261311E-08 -1
v 0.6588627 -2.261311E-08 -1.823578
v 0.7071069 -2.261311E-08 -1.707107
v 0.6008844 -2.261311E-08 -1.751105
v -1.707107 -2.261311E-08 -2.707108
v -7.450581E-08 -2.261311E-08 -2
v -1.207107 -2.261311E-08 -1.5
v -0.7071066 -2.261311E-08 -1.707108
v -1 -2.261311E-08 -1
v -2.073687 -1 -3.592108
v 1.196478 -1 0.4955969
v -0.7071065 -1 -0.2928934
v 0.6008843 -1 -0.2488947
v 2.533197E-07 -1 -4.0772E-08
v 0.7071067 -1 -0.2928934
v 1 -1 -1
v 0.7071068 -1 -1.707107
v -1.196478 -1 -2.495598
v -1.707107 -1 -2.707108
v -7.450581E-08 -1 -2
v -0.6008845 -1 -1.751106
v -1.207107 -1 -1.5
v -0.7071067 -1 -1.707107
v -0.9999999 -1 -1
v -0.7803302 -1 -0.4696703
v -0.9267768 -2.261311E-08 -0.8232232
v -1 -1 -1
v -0.1767768 -1 -0.07322363
v -0.5303302 -2.261311E-08 -0.2196703
v 0.53033 -1 -0.2196703
v 0.1767766 -2.261311E-08 -0.07322315
v 0.9267766 -1 -0.8232232
v 0.78033 -2.261311E-08 -0.4696703
v 0.9999999 -1 -1
v 0.7803299 -1 -1.53033
v 0.9267766 -2.261311E-08 -1.176777
v 0.1767766 -1 -1.926776
v 0.53033 -2.261311E-08 -1.78033
v -0.5303301 -1 -1.78033
v -0.1767768 -2.261311E-08 -1.926777
v -0.9267768 -1 -1.176777
v -0.7803301 -2.261311E-08 -1.53033

vt 1.071068 -1
vt -4 -1
vt 1.071069 -0.3661164
vt -4 -2.261311E-08
vt 1.071069 -2.261311E-08
vt 4 -1
vt 4 -2.261311E-08
vt 4 -1
vt -6 -1
vt 4 -2.261311E-08
vt -6 -2.261311E-08
vt 3.071069 -1
vt 3.071069 -0.1161165
vt 3.071069 -2.261311E-08
vt -3.071068 -1
vt -4 -1
vt -3.071068 -0.8838836
vt -4 -2.261311E-08
vt -3.071068 -2.261311E-08
vt -1.656855 -1
vt -1.656855 -0.7656856
vt -1.656855 -2.261311E-08
vt 1.656855 -1
vt 1.656855 -0.4343145
vt 1.656855 -2.261311E-08
vt 6 -1
vt 6 -2.261311E-08
vt -1.071068 4
vt 4 4
vt 0.6588627 -0.1764217
vt 4 -6
vt 3.071069 -6
vt -4 1.656855
vt -4 4
vt 0.6008841 -0.2488947
vt 0.7071069 -0.2928934
vt -4 -1.656855
vt -4.023314E-07 -4.0772E-08
vt -0.7071066 -0.292893
vt -2.073686 -3.592108
vt -4 -6
vt -3.071068 -6
vt -0.9999999 -1
vt -0.6588627 -1.823578
vt 1.071068 -6
vt -0.7071069 -1.707107
vt -0.6008844 -1.751105
vt 1.707107 -2.707108
vt 7.450581E-08 -2
vt 1.207107 -1.5
vt 0.7071066 -1.707108
vt 1 -1
vt -4 -6
vt -4 4
vt 1.071069 4
vt 4 1.656855
vt 1.196478 0.4955969
vt 4 4
vt 4 -1.656855
vt 4 -6
vt -1.071068 -6
vt -1.196478 -2.495598
vt -1.707107 -2.707108
vt -1.207107 -1.5
vt 0.732538 -0.9999998
vt 1.115221 1.861849E-07
vt 1.306563 1.861849E-07
vt 0.7325384 -1
vt 1.306563 -1
vt 0.5411961 -0.9999998
vt 0.5411965 -1
vt 0.5411965 -2.261311E-08
vt 0.191342 -1
vt 0.5740254 -2.26127E-08
vt 0.7653671 -2.26127E-08
vt 0.765367 -1
vt 1.395046E-07 -1
vt -0.5740253 -1
vt -0.1913415 -2.261319E-08
vt -0.7653669 -1
vt -0.7653669 -2.261311E-08
vt -1.115221 -1
vt -0.7325379 -2.016086E-07
vt -0.541196 -2.016086E-07
vt -0.5411963 -1
vt -1.115222 -0.9999998
vt -1.306563 -0.9999998
vt -1.306563 -1
vt -1.306563 -2.261311E-08
vt 0.1913401 -0.9999992
vt 1.306563 -0.9999999

vn 0 0 1
vn -1 0 0
vn 0 0 -1
vn 1 0 0
vn 0 1 0
vn 0 -1 0
vn 0.9238797 3.85808E-07 -0.3826831
vn 0.3826826 -4.633499E-07 -0.9238799
vn -0.3826826 8.810806E-07 -0.9238799
vn -0.9238797 -3.307405E-07 -0.3826831
vn -0.9238797 2.37545E-07 0.382683
vn -0.3826825 -4.519451E-07 0.9238799
vn 0.3826826 4.519451E-07 0.9238799
vn 0.9238796 -1.274101E-07 0.3826833

usemtl Ground
f 3/3/1 2/2/1 1/1/1
f 4/4/1 2/2/1 3/3/1
f 5/5/1 4/4/1 3/3/1
f 3/3/1 1/1/1 6/6/1
f 7/7/1 3/3/1 6/6/1
f 7/7/1 5/5/1 3/3/1
f 4/10/2 8/9/2 2/8/2
f 4/10/2 9/11/2 8/9/2
f 11/13/3 10/12/3 8/8/3
f 9/10/3 11/13/3 8/8/3
f 9/10/3 12/14/3 11/13/3
f 15/17/3 14/16/3 13/15/3
f 16/18/3 14/16/3 15/17/3
f 17/19/3 16/18/3 15/17/3
f 15/17/3 13/15/3 18/1/3
f 19/3/3 15/17/3 18/1/3
f 17/19/3 15/17/3 19/3/3
f 20/5/3 17/19/3 19/3/3
f 19/3/3 18/1/3 10/12/3
f 11/13/3 19/3/3 10/12/3
f 20/5/3 19/3/3 11/13/3
f 12/14/3 20/5/3 11/13/3
f 22/21/4 6/2/4 21/20/4
f 7/4/4 6/2/4 22/21/4
f 23/22/4 7/4/4 22/21/4
f 22/21/4 21/20/4 24/23/4
f 25/24/4 22/21/4 24/23/4
f 23/22/4 22/21/4 25/24/4
f 26/25/4 23/22/4 25/24/4
f 25/24/4 24/23/4 14/26/4
f 16/27/4 25/24/4 14/26/4
f 16/27/4 26/25/4 25/24/4
f 27/30/5 4/29/5 5/28/5
f 9/31/5 4/29/5 27/30/5
f 12/32/5 9/31/5 27/30/5
f 5/28/5 7/34/5 23/33/5
f 27/30/5 5/28/5 23/33/5
f 28/35/5 27/30/5 23/33/5
f 29/36/5 27/30/5 28/35/5
f 30/38/5 23/33/5 26/37/5
f 32/40/5 31/39/5 26/37/5
f 16/41/5 32/40/5 26/37/5
f 16/41/5 17/42/5 32/40/5
f 32/40/5 34/44/5 33/43/5
f 20/45/5 34/44/5 32/40/5
f 17/42/5 20/45/5 32/40/5
f 34/44/5 36/47/5 35/46/5
f 37/48/5 36/47/5 34/44/5
f 12/32/5 37/48/5 34/44/5
f 20/45/5 12/32/5 34/44/5
f 37/48/5 39/50/5 38/49/5
f 39/50/5 41/52/5 40/51/5
f 42/40/6 8/53/6 10/42/6
f 2/54/6 8/53/6 42/40/6
f 1/55/6 2/54/6 42/40/6
f 6/58/6 43/57/6 21/56/6
f 1/55/6 44/39/6 43/57/6
f 6/58/6 1/55/6 43/57/6
f 45/35/6 24/59/6 21/56/6
f 43/57/6 45/35/6 21/56/6
f 45/35/6 43/57/6 46/38/6
f 14/60/6 24/59/6 47/36/6
f 13/32/6 14/60/6 47/36/6
f 18/61/6 13/32/6 48/52/6
f 10/42/6 18/61/6 49/51/6
f 42/40/6 10/42/6 49/51/6
f 50/62/6 42/40/6 49/51/6
f 51/63/6 42/40/6 50/62/6
f 53/47/6 50/62/6 52/49/6
f 51/63/6 50/62/6 53/47/6
f 54/64/6 51/63/6 53/47/6
f 56/43/6 54/64/6 55/46/6
f 41/67/7 58/66/7 57/65/7
f 59/69/7 41/67/7 57/68/7
f 44/70/7 57/65/7 58/66/7
f 29/72/7 44/71/7 58/66/7
f 29/75/8 61/74/8 60/73/8
f 44/76/8 29/75/8 60/73/8
f 46/77/8 60/73/8 61/74/8
f 30/38/8 46/77/8 61/74/8
f 30/38/9 63/79/9 62/78/9
f 46/77/9 30/38/9 62/78/9
f 47/80/9 62/78/9 63/79/9
f 31/81/9 47/80/9 63/79/9
f 31/84/10 65/83/10 64/82/10
f 47/85/10 31/84/10 64/82/10
f 66/87/10 64/86/10 65/83/10
f 33/89/10 66/88/10 65/83/10
f 33/84/11 68/83/11 67/86/11
f 66/85/11 33/84/11 67/82/11
f 49/88/11 67/82/11 68/83/11
f 35/89/11 49/88/11 68/83/11
f 35/38/12 70/79/12 69/78/12
f 49/77/12 35/38/12 69/78/12
f 52/80/12 69/78/12 70/79/12
f 38/81/12 52/80/12 70/79/12
f 38/75/13 72/74/13 71/90/13
f 52/76/13 38/75/13 71/73/13
f 55/77/13 71/73/13 72/74/13
f 40/38/13 55/77/13 72/74/13
f 40/67/14 74/66/14 73/68/14
f 55/91/14 40/67/14 73/65/14
f 59/71/14 73/68/14 74/66/14
f 41/72/14 59/71/14 74/66/14

